<svg width="16" height="16" viewBox="0 0 16 16" fill="none" xmlns="http://www.w3.org/2000/svg">
<path d="M4.27714 14.4032C4.09238 14.2275 4 14.0195 4 13.7792C4 13.5393 4.09238 13.3316 4.27714 13.1559L9.69053 8.00879L4.25866 2.8441C4.08622 2.68014 4 2.4752 4 2.22926C4 1.98332 4.09238 1.77252 4.27714 1.59685C4.46189 1.42118 4.68065 1.33334 4.93339 1.33334C5.18565 1.33334 5.40416 1.42118 5.58891 1.59685L11.7968 7.51692C11.8707 7.58719 11.9231 7.66331 11.9542 7.74529C11.9847 7.82727 12 7.9151 12 8.00879C12 8.10248 11.9847 8.19032 11.9542 8.2723C11.9231 8.35428 11.8707 8.4304 11.7968 8.50067L5.57044 14.4207C5.398 14.5847 5.18565 14.6667 4.93339 14.6667C4.68065 14.6667 4.46189 14.5788 4.27714 14.4032Z" fill="#6C331E"/>
</svg>
