<svg width="24" height="24" viewBox="0 0 24 24" fill="none" xmlns="http://www.w3.org/2000/svg">
<path d="M18.9991 5.62549C18.9989 5.28456 18.8806 4.95372 18.6635 4.68678C18.4465 4.41985 18.1433 4.2325 17.8034 4.15523L17.4117 2.76552C17.3402 2.5408 17.1961 2.34477 17.001 2.20679C16.8059 2.06881 16.5703 1.99632 16.3294 2.00018H7.6606C7.42068 1.99503 7.1857 2.06719 6.99195 2.20552C6.7982 2.34385 6.65645 2.54064 6.58859 2.76552L6.19689 4.15523C5.84461 4.24202 5.53357 4.44447 5.31588 4.72864C5.09819 5.01282 4.98709 5.36145 5.00119 5.71613C5.00034 6.03791 5.10639 6.35127 5.30342 6.60913C5.50044 6.86699 5.7778 7.05542 6.09382 7.14611L6.19689 9.93559C6.03186 9.96176 5.87996 10.0395 5.76397 10.1571C5.69112 10.2322 5.63442 10.3208 5.59724 10.4177C5.56006 10.5145 5.54315 10.6177 5.54751 10.7211L5.79489 16.5216C5.8024 16.6998 5.8735 16.8699 5.99587 17.0023C6.11823 17.1347 6.28416 17.2212 6.4649 17.2466L6.54736 19.4823C6.56858 20.1591 6.85955 20.8011 7.35826 21.2714C7.85696 21.7416 8.52395 22.003 9.21707 21.9998H14.7729C15.4677 22.0052 16.137 21.7448 16.6378 21.2743C17.1386 20.8039 17.4312 20.1607 17.453 19.4823L17.5354 17.2466C17.7142 17.2189 17.8776 17.1315 17.9979 16.9993C18.1181 16.8671 18.1878 16.6983 18.1951 16.5216L18.4425 10.7211C18.4469 10.6177 18.43 10.5145 18.3928 10.4177C18.3556 10.3208 18.2989 10.2322 18.2261 10.1571C18.1142 10.0396 17.9655 9.96171 17.8034 9.93559L17.9065 7.14611C18.2328 7.04274 18.5159 6.8385 18.713 6.56421C18.91 6.28991 19.0105 5.96044 18.9991 5.62549ZM7.6606 3.00721L16.4119 3.03742L16.7211 4.11494H7.29982L7.6606 3.00721ZM16.4222 19.452C16.4093 19.8689 16.2291 20.2641 15.9205 20.5524C15.612 20.8406 15.1998 20.9988 14.7729 20.9928H9.21707C8.79175 20.9969 8.38175 20.8378 8.07526 20.5497C7.76877 20.2616 7.59027 19.8674 7.57813 19.452L7.49567 17.2567H16.5047L16.4222 19.452ZM9.83553 13.5911C9.83553 13.1729 9.96249 12.764 10.2003 12.4162C10.4382 12.0684 10.7763 11.7974 11.1718 11.6373C11.5673 11.4773 12.0026 11.4354 12.4225 11.517C12.8424 11.5986 13.2281 11.8 13.5308 12.0958C13.8335 12.3915 14.0397 12.7683 14.1232 13.1785C14.2067 13.5888 14.1639 14.014 14 14.4004C13.8362 14.7868 13.5587 15.1171 13.2028 15.3495C12.8468 15.5819 12.4283 15.7059 12.0002 15.7059C11.4261 15.7059 10.8755 15.4831 10.4695 15.0865C10.0636 14.6899 9.83553 14.152 9.83553 13.5911ZM16.7727 9.91545H7.22767L7.12459 7.22668H16.8654L16.7727 9.91545ZM17.453 6.21964H6.54736C6.47232 6.21718 6.39863 6.1994 6.33105 6.16745C6.26346 6.1355 6.20347 6.09009 6.15492 6.03412C6.10638 5.97816 6.07036 5.9129 6.04919 5.84252C6.02801 5.77214 6.02215 5.69822 6.03197 5.62549C6.03197 5.49195 6.08627 5.36388 6.18292 5.26945C6.27958 5.17503 6.41067 5.12198 6.54736 5.12198H17.453C17.5277 5.12534 17.6009 5.14371 17.668 5.17595C17.7352 5.20819 17.7948 5.25361 17.8431 5.30936C17.8915 5.36512 17.9276 5.43001 17.9491 5.5C17.9707 5.56999 17.9772 5.64356 17.9684 5.71613C17.9684 5.84967 17.9141 5.97774 17.8174 6.07217C17.7207 6.16659 17.5897 6.21964 17.453 6.21964Z" fill="#6C331E"/>
</svg>
