<svg width="16" height="16" viewBox="0 0 16 16" fill="none" xmlns="http://www.w3.org/2000/svg">
<path d="M8.00004 1.33336C11.682 1.33336 14.6667 4.31803 14.6667 8.00003C14.6667 11.682 11.682 14.6667 8.00004 14.6667C4.31804 14.6667 1.33337 11.682 1.33337 8.00003C1.33337 4.31803 4.31804 1.33336 8.00004 1.33336ZM8.00004 2.66669C6.58555 2.66669 5.229 3.2286 4.2288 4.22879C3.22861 5.22898 2.66671 6.58554 2.66671 8.00003C2.66671 9.41451 3.22861 10.7711 4.2288 11.7713C5.229 12.7715 6.58555 13.3334 8.00004 13.3334C9.41453 13.3334 10.7711 12.7715 11.7713 11.7713C12.7715 10.7711 13.3334 9.41451 13.3334 8.00003C13.3334 6.58554 12.7715 5.22898 11.7713 4.22879C10.7711 3.2286 9.41453 2.66669 8.00004 2.66669ZM7.99337 6.66669C8.36537 6.66669 8.66671 6.96803 8.66671 7.34003V10.756C8.79379 10.8294 8.89312 10.9427 8.94927 11.0783C9.00543 11.2138 9.01528 11.3642 8.9773 11.5059C8.93931 11.6477 8.85562 11.7729 8.7392 11.8623C8.62277 11.9516 8.48013 12 8.33337 12H8.00671C7.91828 12 7.83073 11.9826 7.74903 11.9488C7.66734 11.9149 7.59311 11.8653 7.53059 11.8028C7.46806 11.7403 7.41847 11.6661 7.38463 11.5844C7.35079 11.5027 7.33337 11.4151 7.33337 11.3267V8.00003C7.15656 8.00003 6.98699 7.92979 6.86197 7.80476C6.73695 7.67974 6.66671 7.51017 6.66671 7.33336C6.66671 7.15655 6.73695 6.98698 6.86197 6.86195C6.98699 6.73693 7.15656 6.66669 7.33337 6.66669H7.99337ZM8.00004 4.66669C8.17685 4.66669 8.34642 4.73693 8.47145 4.86195C8.59647 4.98698 8.66671 5.15655 8.66671 5.33336C8.66671 5.51017 8.59647 5.67974 8.47145 5.80476C8.34642 5.92979 8.17685 6.00003 8.00004 6.00003C7.82323 6.00003 7.65366 5.92979 7.52864 5.80476C7.40361 5.67974 7.33337 5.51017 7.33337 5.33336C7.33337 5.15655 7.40361 4.98698 7.52864 4.86195C7.65366 4.73693 7.82323 4.66669 8.00004 4.66669Z" fill="#6C331E"/>
</svg>
